<svg xmlns="http://www.w3.org/2000/svg" viewBox="0 0 32 32">
  <rect width="32" height="32" rx="8" fill="#BE3455"/>
  <!-- Syringe body -->
  <rect x="10" y="7" width="6" height="14" rx="1" fill="white"/>
  <!-- Syringe plunger -->
  <rect x="11.5" y="4" width="3" height="4" rx="0.5" fill="white"/>
  <!-- Needle -->
  <rect x="12" y="21" width="2" height="5" fill="white"/>
  <polygon points="13,26 11.5,28 14.5,28" fill="white"/>
  <!-- Measurement lines -->
  <line x1="10" y1="10" x2="12" y2="10" stroke="#BE3455" stroke-width="0.75"/>
  <line x1="10" y1="13" x2="12" y2="13" stroke="#BE3455" stroke-width="0.75"/>
  <line x1="10" y1="16" x2="12" y2="16" stroke="#BE3455" stroke-width="0.75"/>
  <!-- Droplet -->
  <path d="M22 14 C22 14 19 18 19 20.5 C19 22.5 20.3 24 22 24 C23.7 24 25 22.5 25 20.5 C25 18 22 14 22 14 Z" fill="white"/>
</svg>
